<svg id="Camada_1" data-name="Camada 1" xmlns="http://www.w3.org/2000/svg" viewBox="0 0 24 24"><title>ic_format_color_fill_grey_24px</title><path d="M0,0H24V24H0Z" style="fill:none"/><path d="M16.56,8.94,7.62,0,6.21,1.41,8.59,3.79,3.44,8.94a1.49,1.49,0,0,0,0,2.12l5.5,5.5a1.5,1.5,0,0,0,2.12,0l5.5-5.5A1.49,1.49,0,0,0,16.56,8.94ZM5.21,10,10,5.21,14.79,10ZM19,11.5s-2,2.17-2,3.5a2,2,0,0,0,4,0C21,13.67,19,11.5,19,11.5Z" style="fill:#8c8c8c"/><path d="M0,20H24v4H0Z" style="fill:#8c8c8c;fill-opacity:0.36000001430511475"/></svg>