<svg id="Camada_1" data-name="Camada 1" xmlns="http://www.w3.org/2000/svg" viewBox="0 0 24 24"><title>ic_monetization_on_grey_24px</title><path d="M12,2A10,10,0,1,0,22,12,10,10,0,0,0,12,2Zm1.41,16.09V20H10.74V18.07a3.72,3.72,0,0,1-3.27-3.4h2c.1,1.05.82,1.87,2.65,1.87s2.4-1,2.4-1.59c0-.83-.44-1.61-2.67-2.14-2.48-.6-4.18-1.62-4.18-3.67C7.63,7.42,9,6.3,10.74,5.93V4h2.67V6a3.54,3.54,0,0,1,2.85,3.39h-2c-.05-1.11-.64-1.87-2.22-1.87s-2.4.68-2.4,1.64.65,1.39,2.67,1.91,4.18,1.39,4.18,3.91C16.52,16.76,15.15,17.76,13.41,18.09Z" style="fill:#8c8c8c"/><path d="M0,0H24V24H0Z" style="fill:none"/></svg>